<?xml version="1.0" encoding="UTF-8" standalone="no"?>
<svg
   version="1.1"
   viewBox="-5 -10 1024 1024"
   id="svg1276"
   sodipodi:docname="logo.svg"
   width="1024"
   height="1024"
   inkscape:version="1.2 (dc2aeda, 2022-05-15)"
   inkscape:export-filename="logo.png"
   inkscape:export-xdpi="96"
   inkscape:export-ydpi="96"
   xmlns:inkscape="http://www.inkscape.org/namespaces/inkscape"
   xmlns:sodipodi="http://sodipodi.sourceforge.net/DTD/sodipodi-0.dtd"
   xmlns="http://www.w3.org/2000/svg"
   xmlns:svg="http://www.w3.org/2000/svg">
  <defs
     id="defs1280" />
  <sodipodi:namedview
     id="namedview1278"
     pagecolor="#ffffff"
     bordercolor="#000000"
     borderopacity="0.25"
     inkscape:showpageshadow="2"
     inkscape:pageopacity="0.0"
     inkscape:pagecheckerboard="0"
     inkscape:deskcolor="#d1d1d1"
     showgrid="false"
     inkscape:zoom="0.78320312"
     inkscape:cx="507.53117"
     inkscape:cy="512"
     inkscape:current-layer="svg1276" />
  <path
     d="m 899.42039,627.09442 c 0,-1.57219 -0.47161,-3.30155 -0.94331,-4.71657 0,-0.31444 -0.15727,-0.62888 -0.31443,-1.10058 0,-0.15727 0,-0.47161 -0.15728,-0.62888 L 772.23019,369.09801 c -2.67268,-5.34545 -8.17539,-8.64709 -13.99224,-8.64709 H 626.48592 l 87.09882,-150.76923 c 4.40213,-7.54651 1.72945,-17.13662 -5.81705,-21.53876 L 519.57782,79.503369 c -3.61609,-2.043796 -7.86096,-2.672672 -11.94864,-1.572189 -4.0877,1.100482 -7.38935,3.773255 -9.59031,7.389342 L 355.43999,332.3128 c -4.40213,7.5465 -1.72946,17.13661 5.81705,21.53875 l 11.63371,6.76047 H 255.13498 c -5.97432,0 -11.47673,3.30154 -13.99224,8.64709 L 115.36756,620.80948 c 0,0 0,0.47161 -0.15727,0.62888 0,0.31444 -0.15727,0.62888 -0.31444,1.10058 -0.62887,1.57219 -0.94331,3.14438 -0.94331,4.71657 v 0.62888 282.99417 c 0,8.6471 7.0748,15.7219 15.72189,15.7219 h 754.65113 c 8.6471,0 15.7219,-7.0748 15.7219,-15.7219 V 627.88439 627.25551 Z M 517.37575,114.71649 678.36799,207.63316 551.49604,427.42782 390.5038,334.51114 Z M 264.72861,391.89481 h 162.56191 l 122.16293,70.43411 c 2.35834,1.41492 5.18817,2.04379 7.86094,2.04379 1.41493,0 2.67268,-0.15726 4.0877,-0.4716 4.08769,-1.10058 7.38935,-3.77326 9.59031,-7.38934 l 37.41862,-64.77422 H 748.65539 L 858.71371,611.84413 H 154.68458 L 264.7429,391.73755 Z M 868.13759,894.99556 H 144.93026 V 643.44519 h 723.20733 z"
     id="path1268"
     style="fill:#808080;stroke:#808080;stroke-width:40;stroke-dasharray:none" />
  <path
     d="M 662.28363,440.52747 H 351.71636 c -10.67581,0 -19.41046,19.14054 -19.41046,42.5349 0,23.3943 8.73465,42.53484 19.41046,42.53484 h 310.56727 c 10.67582,0 19.41047,-19.14054 19.41047,-42.53484 0,-23.39436 -8.73465,-42.5349 -19.41047,-42.5349 z"
     id="path1270"
     style="fill:#808080;stroke-width:18.3895" />
</svg>
